<mxfile host="Electron" modified="2024-05-31T08:14:53.664Z" agent="Mozilla/5.0 (Windows NT 10.0; Win64; x64) AppleWebKit/537.36 (KHTML, like Gecko) draw.io/23.1.5 Chrome/120.0.6099.109 Electron/28.1.0 Safari/537.36" etag="67U-mqocRzwfNTopQ14x" version="23.1.5" type="device">
  <diagram name="Page-1" id="TLU0sT30-jwFgUOzml1S">
    <mxGraphModel dx="859" dy="352" grid="1" gridSize="10" guides="1" tooltips="1" connect="1" arrows="1" fold="1" page="1" pageScale="1" pageWidth="827" pageHeight="1169" math="0" shadow="0">
      <root>
        <mxCell id="0" />
        <mxCell id="1" parent="0" />
        <mxCell id="nu0KvqEMFEAOd2VoeIRK-23" value="&lt;b&gt;Exp No. 09 Deployment Diagram for Online Shopping System&lt;/b&gt;" style="text;html=1;align=center;verticalAlign=middle;resizable=0;points=[];autosize=1;strokeColor=none;fillColor=none;" parent="1" vertex="1">
          <mxGeometry x="240" y="640" width="370" height="30" as="geometry" />
        </mxCell>
        <mxCell id="r3ErtMrVJBlx3J1zyAC9-5" value="" style="group" parent="1" vertex="1" connectable="0">
          <mxGeometry x="286.25" y="450" width="267" height="180" as="geometry" />
        </mxCell>
        <mxCell id="r3ErtMrVJBlx3J1zyAC9-9" value="" style="group" parent="r3ErtMrVJBlx3J1zyAC9-5" vertex="1" connectable="0">
          <mxGeometry width="267" height="180" as="geometry" />
        </mxCell>
        <mxCell id="nu0KvqEMFEAOd2VoeIRK-18" value="Customer PC" style="verticalAlign=top;align=center;shape=cube;size=10;direction=south;html=1;boundedLbl=1;spacingLeft=5;whiteSpace=wrap;" parent="r3ErtMrVJBlx3J1zyAC9-9" vertex="1">
          <mxGeometry width="267" height="180" as="geometry" />
        </mxCell>
        <mxCell id="nu0KvqEMFEAOd2VoeIRK-19" value="Browser" style="shape=module;align=left;spacingLeft=20;align=center;verticalAlign=top;whiteSpace=wrap;html=1;" parent="r3ErtMrVJBlx3J1zyAC9-9" vertex="1">
          <mxGeometry x="10" y="50" width="100" height="60" as="geometry" />
        </mxCell>
        <mxCell id="r3ErtMrVJBlx3J1zyAC9-4" value="Cookies&lt;br&gt;Files&lt;br&gt;&lt;div style=&quot;&quot;&gt;&lt;span style=&quot;background-color: initial;&quot;&gt;History&lt;/span&gt;&lt;/div&gt;" style="html=1;outlineConnect=0;whiteSpace=wrap;fillColor=none;shape=mxgraph.archimate.application;appType=artifact;gradientColor=default;align=left;" parent="r3ErtMrVJBlx3J1zyAC9-9" vertex="1">
          <mxGeometry x="150" y="70" width="70" height="75" as="geometry" />
        </mxCell>
        <mxCell id="r3ErtMrVJBlx3J1zyAC9-7" value="" style="html=1;verticalAlign=bottom;labelBackgroundColor=none;endArrow=open;endFill=0;dashed=1;rounded=0;exitX=0.75;exitY=1;exitDx=0;exitDy=0;entryX=0;entryY=0.75;entryDx=0;entryDy=0;entryPerimeter=0;" parent="r3ErtMrVJBlx3J1zyAC9-9" source="nu0KvqEMFEAOd2VoeIRK-19" target="r3ErtMrVJBlx3J1zyAC9-4" edge="1">
          <mxGeometry width="160" relative="1" as="geometry">
            <mxPoint x="100" y="30" as="sourcePoint" />
            <mxPoint x="260" y="30" as="targetPoint" />
          </mxGeometry>
        </mxCell>
        <mxCell id="r3ErtMrVJBlx3J1zyAC9-10" value="" style="group" parent="1" vertex="1" connectable="0">
          <mxGeometry x="90" y="120" width="267" height="200" as="geometry" />
        </mxCell>
        <mxCell id="r3ErtMrVJBlx3J1zyAC9-11" value="" style="group" parent="r3ErtMrVJBlx3J1zyAC9-10" vertex="1" connectable="0">
          <mxGeometry y="-20" width="267" height="200" as="geometry" />
        </mxCell>
        <mxCell id="r3ErtMrVJBlx3J1zyAC9-12" value="Online Shopping Server" style="verticalAlign=top;align=center;shape=cube;size=10;direction=south;html=1;boundedLbl=1;spacingLeft=5;whiteSpace=wrap;" parent="r3ErtMrVJBlx3J1zyAC9-11" vertex="1">
          <mxGeometry width="267" height="200" as="geometry" />
        </mxCell>
        <mxCell id="r3ErtMrVJBlx3J1zyAC9-13" value="Shopping&amp;nbsp;&lt;br&gt;App/Website" style="shape=module;align=left;spacingLeft=20;align=center;verticalAlign=top;whiteSpace=wrap;html=1;" parent="r3ErtMrVJBlx3J1zyAC9-11" vertex="1">
          <mxGeometry x="10" y="55.55555555555555" width="100" height="66.66666666666667" as="geometry" />
        </mxCell>
        <mxCell id="r3ErtMrVJBlx3J1zyAC9-14" value="User Database" style="html=1;outlineConnect=0;whiteSpace=wrap;fillColor=none;shape=mxgraph.archimate.application;appType=artifact;gradientColor=default;align=left;" parent="r3ErtMrVJBlx3J1zyAC9-11" vertex="1">
          <mxGeometry x="150" y="71.77777777777777" width="70" height="83.33333333333333" as="geometry" />
        </mxCell>
        <mxCell id="r3ErtMrVJBlx3J1zyAC9-15" value="" style="html=1;verticalAlign=bottom;labelBackgroundColor=none;endArrow=open;endFill=0;dashed=1;rounded=0;exitX=0.75;exitY=1;exitDx=0;exitDy=0;entryX=0;entryY=0.75;entryDx=0;entryDy=0;entryPerimeter=0;" parent="r3ErtMrVJBlx3J1zyAC9-11" source="r3ErtMrVJBlx3J1zyAC9-13" target="r3ErtMrVJBlx3J1zyAC9-14" edge="1">
          <mxGeometry width="160" relative="1" as="geometry">
            <mxPoint x="100" y="33.333333333333336" as="sourcePoint" />
            <mxPoint x="260" y="33.333333333333336" as="targetPoint" />
          </mxGeometry>
        </mxCell>
        <mxCell id="r3ErtMrVJBlx3J1zyAC9-16" value="" style="ellipse;whiteSpace=wrap;html=1;align=left;fillColor=none;gradientColor=default;" parent="r3ErtMrVJBlx3J1zyAC9-11" vertex="1">
          <mxGeometry x="176.88" y="174.89000000000001" width="16.25" height="11.11" as="geometry" />
        </mxCell>
        <mxCell id="r3ErtMrVJBlx3J1zyAC9-17" value="" style="edgeStyle=orthogonalEdgeStyle;rounded=0;orthogonalLoop=1;jettySize=auto;html=1;" parent="r3ErtMrVJBlx3J1zyAC9-11" source="r3ErtMrVJBlx3J1zyAC9-14" target="r3ErtMrVJBlx3J1zyAC9-16" edge="1">
          <mxGeometry relative="1" as="geometry" />
        </mxCell>
        <mxCell id="r3ErtMrVJBlx3J1zyAC9-18" value="" style="html=1;verticalAlign=bottom;labelBackgroundColor=none;endArrow=open;endFill=0;dashed=1;rounded=0;entryX=0.5;entryY=1;entryDx=0;entryDy=0;" parent="1" source="nu0KvqEMFEAOd2VoeIRK-18" target="r3ErtMrVJBlx3J1zyAC9-16" edge="1">
          <mxGeometry width="160" relative="1" as="geometry">
            <mxPoint x="360" y="320" as="sourcePoint" />
            <mxPoint x="240" y="300" as="targetPoint" />
          </mxGeometry>
        </mxCell>
        <mxCell id="r3ErtMrVJBlx3J1zyAC9-30" value="Communication link" style="edgeLabel;html=1;align=center;verticalAlign=middle;resizable=0;points=[];" parent="r3ErtMrVJBlx3J1zyAC9-18" vertex="1" connectable="0">
          <mxGeometry x="-0.1809" y="1" relative="1" as="geometry">
            <mxPoint as="offset" />
          </mxGeometry>
        </mxCell>
        <mxCell id="r3ErtMrVJBlx3J1zyAC9-19" value="" style="group" parent="1" vertex="1" connectable="0">
          <mxGeometry x="480" y="120" width="267" height="200" as="geometry" />
        </mxCell>
        <mxCell id="r3ErtMrVJBlx3J1zyAC9-20" value="" style="group" parent="r3ErtMrVJBlx3J1zyAC9-19" vertex="1" connectable="0">
          <mxGeometry y="-20" width="267" height="200" as="geometry" />
        </mxCell>
        <mxCell id="r3ErtMrVJBlx3J1zyAC9-21" value="Bank Server" style="verticalAlign=top;align=center;shape=cube;size=10;direction=south;html=1;boundedLbl=1;spacingLeft=5;whiteSpace=wrap;" parent="r3ErtMrVJBlx3J1zyAC9-20" vertex="1">
          <mxGeometry width="267" height="200" as="geometry" />
        </mxCell>
        <mxCell id="r3ErtMrVJBlx3J1zyAC9-22" value="Banking App&amp;nbsp;&lt;br&gt;App/Website" style="shape=module;align=left;spacingLeft=20;align=center;verticalAlign=top;whiteSpace=wrap;html=1;" parent="r3ErtMrVJBlx3J1zyAC9-20" vertex="1">
          <mxGeometry x="10" y="55.55555555555555" width="100" height="66.66666666666667" as="geometry" />
        </mxCell>
        <mxCell id="r3ErtMrVJBlx3J1zyAC9-23" value="Customer&lt;br&gt;Database" style="html=1;outlineConnect=0;whiteSpace=wrap;fillColor=none;shape=mxgraph.archimate.application;appType=artifact;gradientColor=default;align=left;" parent="r3ErtMrVJBlx3J1zyAC9-20" vertex="1">
          <mxGeometry x="150" y="70.77777777777777" width="70" height="83.33333333333333" as="geometry" />
        </mxCell>
        <mxCell id="r3ErtMrVJBlx3J1zyAC9-24" value="" style="html=1;verticalAlign=bottom;labelBackgroundColor=none;endArrow=open;endFill=0;dashed=1;rounded=0;exitX=0.75;exitY=1;exitDx=0;exitDy=0;entryX=0;entryY=0.75;entryDx=0;entryDy=0;entryPerimeter=0;" parent="r3ErtMrVJBlx3J1zyAC9-20" source="r3ErtMrVJBlx3J1zyAC9-22" target="r3ErtMrVJBlx3J1zyAC9-23" edge="1">
          <mxGeometry width="160" relative="1" as="geometry">
            <mxPoint x="100" y="33.333333333333336" as="sourcePoint" />
            <mxPoint x="260" y="33.333333333333336" as="targetPoint" />
          </mxGeometry>
        </mxCell>
        <mxCell id="r3ErtMrVJBlx3J1zyAC9-25" value="" style="ellipse;whiteSpace=wrap;html=1;align=left;fillColor=none;gradientColor=default;" parent="r3ErtMrVJBlx3J1zyAC9-20" vertex="1">
          <mxGeometry x="176.88" y="175.89000000000001" width="16.25" height="11.11" as="geometry" />
        </mxCell>
        <mxCell id="r3ErtMrVJBlx3J1zyAC9-26" value="" style="edgeStyle=orthogonalEdgeStyle;rounded=0;orthogonalLoop=1;jettySize=auto;html=1;" parent="r3ErtMrVJBlx3J1zyAC9-20" source="r3ErtMrVJBlx3J1zyAC9-23" target="r3ErtMrVJBlx3J1zyAC9-25" edge="1">
          <mxGeometry relative="1" as="geometry" />
        </mxCell>
        <mxCell id="r3ErtMrVJBlx3J1zyAC9-27" value="" style="html=1;verticalAlign=bottom;labelBackgroundColor=none;endArrow=open;endFill=0;dashed=1;rounded=0;entryX=0.5;entryY=1;entryDx=0;entryDy=0;" parent="1" source="nu0KvqEMFEAOd2VoeIRK-18" target="r3ErtMrVJBlx3J1zyAC9-25" edge="1">
          <mxGeometry width="160" relative="1" as="geometry">
            <mxPoint x="360" y="320" as="sourcePoint" />
            <mxPoint x="520" y="320" as="targetPoint" />
          </mxGeometry>
        </mxCell>
        <mxCell id="r3ErtMrVJBlx3J1zyAC9-31" value="Communication link" style="edgeLabel;html=1;align=center;verticalAlign=middle;resizable=0;points=[];" parent="r3ErtMrVJBlx3J1zyAC9-27" vertex="1" connectable="0">
          <mxGeometry x="-0.0466" y="3" relative="1" as="geometry">
            <mxPoint as="offset" />
          </mxGeometry>
        </mxCell>
        <mxCell id="r3ErtMrVJBlx3J1zyAC9-35" style="edgeStyle=orthogonalEdgeStyle;rounded=0;orthogonalLoop=1;jettySize=auto;html=1;entryX=0.5;entryY=1;entryDx=0;entryDy=0;entryPerimeter=0;" parent="1" source="r3ErtMrVJBlx3J1zyAC9-12" target="r3ErtMrVJBlx3J1zyAC9-21" edge="1">
          <mxGeometry relative="1" as="geometry" />
        </mxCell>
        <mxCell id="r3ErtMrVJBlx3J1zyAC9-36" value="Communication link" style="edgeLabel;html=1;align=center;verticalAlign=middle;resizable=0;points=[];" parent="r3ErtMrVJBlx3J1zyAC9-35" vertex="1" connectable="0">
          <mxGeometry x="-0.163" y="-1" relative="1" as="geometry">
            <mxPoint x="9" y="10" as="offset" />
          </mxGeometry>
        </mxCell>
        <mxCell id="rK7Nqf-1p1C82EIynpak-1" style="edgeStyle=orthogonalEdgeStyle;rounded=0;orthogonalLoop=1;jettySize=auto;html=1;entryX=0.374;entryY=0.005;entryDx=0;entryDy=0;entryPerimeter=0;" parent="1" edge="1">
          <mxGeometry relative="1" as="geometry">
            <mxPoint x="474" y="175" as="sourcePoint" />
            <mxPoint x="358.6650000000001" y="174.80000000000007" as="targetPoint" />
            <Array as="points">
              <mxPoint x="479" y="174" />
            </Array>
          </mxGeometry>
        </mxCell>
      </root>
    </mxGraphModel>
  </diagram>
</mxfile>
